<?xml version="1.0"?>
<svg xmlns="http://www.w3.org/2000/svg" version="1.2" baseProfile="tiny" width="800" height="681" viewBox="0 0 800 681" stroke-linecap="round" stroke-linejoin="round">
<g id="Florida_Counties">
<path d="M 523.6785 123.7583 523.8676 151.6843 513.3466 151.9177 511.5755 149.5581 502.7814 149.6342 494.299 148.9106 490.6615 147.0711 492.2451 143.8853 491.9811 139.1071 492.9675 131.4367 495.9425 124.3979 498.9341 124.1173 500.5622 120.3609 500.4015 117.7716 502.9942 115.0014 505.2855 115.0547 508.7406 113.0261 511.5193 113.4615 515.4895 120.5925 520.0446 123.3305 523.6785 123.7583 Z" id="GILCHRIST"/>
<path d="M 637.0257 122.7821 639.0037 127.399 642.8852 131.2387 643.0367 145.6179 643.3607 158.4835 646.9086 164.3898 647.7264 169.001 650.1953 170.0991 652.4478 169.1692 650.4249 171.3361 626.5167 176.967 628.6244 175.4203 627.8081 172.0101 620.1476 172.0872 620.1266 165.8886 616.6427 165.9641 616.4856 159.8716 609.4726 159.9721 609.4194 156.2965 602.0878 157.9295 599.9477 156.8595 596.3478 158.1978 589.5744 159.3193 587.2904 161.6429 587.0453 161.368 587.1948 135.516 587.7225 135.5211 589.8665 135.4959 592.2171 133.267 599.2354 132.47 601.2795 128.4209 607.6442 126.6498 612.6265 123.1181 637.0257 122.7821 Z" id="PUTNAM"/>
<path d="M 449.0767 78.4702 448.7371 104.5886 448.7581 117.6669 450.6003 117.7005 450.5911 124.5605 454.168 124.5518 454.0911 129.1748 451.3303 132.9208 450.841 137.8113 448.4176 141.0653 445.249 140.5141 437.4044 138.4212 435.8033 136.0776 431.1342 134.8356 428.0788 130.732 425.5185 124.2285 422.4759 121.7179 419.4985 116.2218 416.2873 113.6142 413.4745 112.9894 409.6128 109.5542 401.2976 106.7741 398.8033 103.942 395.9069 104.5249 391.1005 100.601 386.5323 98.5611 383.484 95.6482 386.6512 89.9279 387.9452 86.0502 389.7534 86.0058 391.3695 80.1332 395.1824 77.5907 400.4796 75.5988 401.6355 73.9293 438.3944 73.8735 438.3462 78.4887 449.0767 78.4702 Z" id="TAYLOR"/>
<path d="M 130.576 57.4759 128.0326 57.2008 126.1642 54.7627 121.5706 53.1666 121.7092 55.4268 116.4304 57.0628 113.893 59.2523 111.1548 58.7976 109.6335 61.7962 96.8069 61.4015 94.086 62.1056 87.9933 61.7198 88.3579 43.5406 89.3885 1.4719 98.736 1.4924 131.1924 2.1307 130.825 26.8731 130.8662 37.3476 130.576 57.4759 Z M 87.8927 64.9259 87.9379 63.4151 95.5415 62.5224 109.9749 62.3222 111.61 63.7499 101.1262 63.2796 94.4415 63.4972 87.8927 64.9259 Z M 130.3567 62.9675 130.2923 64.9415 121.5408 64.6678 119.1161 62.3315 123.6186 61.2807 130.3567 62.9675 Z" id="OKALOOSA"/>
<path d="M 284.3653 42.1027 284.343 42.1531 278.2365 50.8325 277.7163 59.0426 273.9225 61.4642 275.765 65.1371 272.994 66.9236 271.6974 75.7267 270.1124 78.6861 265.098 84.8777 236.2986 84.7149 236.4341 68.1984 236.8483 46.285 259.1605 46.5239 260.12 41.9334 284.3653 42.1027 Z" id="CALHOUN"/>
<path d="M 791.5804 424.6298 791.0545 427.3007 793.0179 427.5964 794.7712 429.5349 794.9345 432.8989 795.741 434.5457 795.3492 436.5194 797.2111 439.2428 797.9978 442.8836 797.7723 466.8144 796.751 471.1911 797.0738 473.6911 794.7434 488.8121 793.8226 492.4915 781.9177 492.2443 779.4911 491.5363 739.3505 491.6101 710.6038 491.6463 710.7511 490.2756 710.1322 458.8767 710.183 425.8347 738.986 425.9266 764.5689 425.9246 788.418 426.1299 791.5804 424.6298 Z M 798.5333 436.5407 796.1298 434.3227 794.8993 430.9032 795.1769 429.8963 794.2814 427.9535 795.8191 427.3524 798.5333 436.5407 Z" id="PALM BEACH"/>
<path d="M 778.2237 393.8542 773.3985 393.8035 773.3652 396.9915 773.318 399.793 763.7959 399.9042 731.9947 399.876 731.8792 362.784 765.7005 362.8979 768.9152 373.1812 773.4345 383.0177 775.7717 389.6903 778.2237 393.8542 Z M 782.6798 393.8935 780.8222 393.8767 780.7674 391.5432 778.3689 385.9345 776.3034 385.3942 776.1052 381.5965 774.0936 378.3889 775.2324 377.3772 780.3091 387.6344 782.6798 393.8935 Z" id="ST. LUCIE"/>
<path d="M 587.0244 283.513 586.9909 289.0655 581.7986 289.0521 581.8019 298.2482 548.9239 298.3365 524.4078 298.0853 510.9396 298.1189 509.7055 295.6342 514.8697 290.4432 515.3541 283.9234 518.7939 276.9012 519.3681 272.7078 522.7489 270.7056 552.1592 270.6995 566.2522 270.5715 566.2488 265.9865 587.1055 266.0088 587.0244 283.513 Z" id="PASCO"/>
<path d="M 352.7631 33.8229 350.3585 35.3874 350.9499 38.1227 347.6143 42.8681 343.4496 44.7249 339.9815 52.6776 340.0459 55.8394 338.2656 57.0616 327.6888 58.4465 322.8836 60.2772 321.4114 62.0189 316.6089 62.9602 314.4875 65.0402 310.9179 65.0772 310.8914 61.9919 307.368 61.9963 307.3588 57.4527 300.3046 57.5336 300.2199 51.3106 296.6323 49.8018 289.6267 49.8173 289.5066 42.1546 284.343 42.1531 284.3653 42.1027 286.9174 40.7642 289.1076 36.0997 292.1922 32.5255 291.5315 31.043 329.2021 32.7813 352.7631 33.8229 Z" id="GADSDEN"/>
<path d="M 381.7127 35.1899 381.6873 41.6801 384.895 50.9613 378.161 50.9912 378.1161 57.1533 374.618 60.1987 374.5527 77.0981 357.1553 77.0687 356.4936 73.9896 307.4534 74.3126 307.2506 71.1288 310.3474 69.0952 310.9217 67.1571 314.4875 65.0402 316.6089 62.9602 321.4114 62.0189 322.8836 60.2772 327.6888 58.4465 338.2656 57.0616 340.0459 55.8394 339.9815 52.6776 343.4496 44.7249 347.6143 42.8681 350.9499 38.1227 350.3585 35.3874 352.7631 33.8229 381.7127 35.1899 Z" id="LEON"/>
<path d="M 423.3562 37.3698 424.117 38.741 424.1471 44.6594 420.6524 47.7366 417.1163 47.7205 413.5817 49.2815 410.1948 52.4455 411.1323 54.324 411.7875 60.1741 408.7351 62.8857 407.8929 65.4272 403.6126 65.7762 402.7361 67.5781 404.2511 70.615 401.6355 73.9293 400.4796 75.5988 395.1824 77.5907 391.3695 80.1332 389.7534 86.0058 387.9452 86.0502 386.6512 89.9279 383.484 95.6482 382.4453 94.3626 374.4774 95.4168 374.5527 77.0981 374.618 60.1987 378.1161 57.1533 378.161 50.9912 384.895 50.9613 381.6873 41.6801 381.7127 35.1899 423.3562 37.3698 Z" id="JEFFERSON"/>
<path d="M 455.1626 39.1343 458.7269 39.7196 462.5709 51.3227 462.1242 56.1604 464.7771 57.0666 464.8072 61.7908 468.6848 62.7016 469.6875 65.3765 467.4364 66.5083 465.3295 69.6454 465.5996 73.1427 463.5898 74.5424 461.5089 78.4997 449.0767 78.4702 438.3462 78.4887 438.3944 73.8735 401.6355 73.9293 404.2511 70.615 402.7361 67.5781 403.6126 65.7762 407.8929 65.4272 408.7351 62.8857 411.7875 60.1741 411.1323 54.324 410.1948 52.4455 413.5817 49.2815 417.1163 47.7205 420.6524 47.7366 424.1471 44.6594 424.117 38.741 423.3562 37.3698 455.1626 39.1343 Z" id="MADISON"/>
<path d="M 314.4875 65.0402 310.9217 67.1571 310.3474 69.0952 307.2506 71.1288 307.4534 74.3126 305.7299 75.6975 306.1165 78.9004 309.0294 80.0433 312.5377 88.0224 312.3174 93.0358 316.1075 99.0419 317.7091 99.054 320.5422 102.9204 325.2605 104.7449 296.1241 104.7064 276.5104 104.4447 274.61 108.8711 274.1715 107.2482 266.7045 104.145 263.0116 101.3144 262.8006 96.7266 261.6164 94.3666 263.3911 90.7841 262.6336 87.8089 265.098 84.8777 270.1124 78.6861 271.6974 75.7267 272.994 66.9236 275.765 65.1371 273.9225 61.4642 277.7163 59.0426 278.2365 50.8325 284.343 42.1531 289.5066 42.1546 289.6267 49.8173 296.6323 49.8018 300.2199 51.3106 300.3046 57.5336 307.3588 57.4527 307.368 61.9963 310.8914 61.9919 310.9179 65.0772 314.4875 65.0402 Z" id="LIBERTY"/>
<path d="M 520.4008 43.035 516.4839 47.2632 516.8743 50.1222 519.0296 55.1313 524.2957 60.8497 523.7632 64.7145 521.2163 69.8338 517.4911 72.1047 515.3922 71.3567 509.4976 71.5486 509.3123 70.4443 504.1012 70.0397 502.6979 68.1832 495.0402 64.9498 492.3518 62.4083 484.0851 60.5883 479.7288 61.1021 478.8697 59.8076 474.8222 60.4075 471.4043 62.0183 469.6875 65.3765 468.6848 62.7016 464.8072 61.7908 464.7771 57.0666 462.1242 56.1604 462.5709 51.3227 458.7269 39.7196 455.1626 39.1343 479.7559 40.6371 520.4008 43.035 Z" id="HAMILTON"/>
<path d="M 236.2986 84.7149 236.1493 100.0636 232.0616 99.7875 228.5093 101.3268 226.5119 100.9892 225.5134 98.0032 226.4574 96.3179 222.6264 95.114 221.404 92.8992 218.5702 91.0706 215.6282 93.1912 211.5708 91.0282 210.179 89.2484 203.6755 88.1029 203.6118 84.7808 206.0522 82.177 206.1587 79.9623 209.5497 78.8502 213.3327 79.0865 214.4411 75.5716 209.3242 77.2139 208.0966 75.3864 205.3194 77.7493 196.2964 74.7354 189.1749 75.3327 187.907 78.1766 188.7534 81.0142 191.0924 81.8256 193.0288 79.1243 196.7586 79.9812 199.6618 83.7296 199.34 87.7745 202.7888 89.0674 200.1826 90.9505 196.1212 89.0819 185.9239 82.5638 172.5336 76.593 172.8492 64.9049 176.4493 62.5464 180.0575 62.0599 184.4785 62.6379 187.5507 59.5205 225.9549 59.9426 226.1358 46.198 231.4657 46.2164 236.8483 46.285 236.4341 68.1984 236.2986 84.7149 Z M 236.1061 102.3903 236.3752 113.4304 232.5511 110.8657 225.51 108.6403 226.3443 107.2986 221.7968 104.8906 221.9626 103.2048 213.136 98.3942 208.6888 94.5951 214.1873 95.6964 217.0185 95.2127 220.684 97.0889 220.907 99.4004 227.0662 103.0603 231.2263 103.5917 233.2256 101.1368 236.1061 102.3903 Z" id="BAY"/>
<path d="M 544.5585 44.626 544.754 79.2796 544.692 91.5667 544.7451 95.1039 538.3234 97.8823 536.5611 100.1405 535.6048 103.7927 532.6535 104.7582 533.0547 108.5511 537.0797 110.571 537.2059 112.1071 532.3212 115.0274 530.5907 117.7395 530.5486 120.4207 523.6785 123.7583 520.0446 123.3305 515.4895 120.5925 511.5193 113.4615 508.7406 113.0261 510.323 110.6349 512.7105 109.6095 512.9372 107.3193 509.3949 107.3485 509.3123 70.4443 509.4976 71.5486 515.3922 71.3567 517.4911 72.1047 521.2163 69.8338 523.7632 64.7145 524.2957 60.8497 519.0296 55.1313 516.8743 50.1222 516.4839 47.2632 520.4008 43.035 523.7297 43.4231 544.5585 44.626 Z" id="COLUMBIA"/>
<path d="M 587.6508 67.7791 587.7247 77.1476 587.7312 86.243 587.7281 90.8321 577.9229 90.8714 555.1031 91.0692 544.692 91.5667 544.754 79.2796 544.5585 44.626 569.4301 46.0275 567.5069 48.5797 569.219 52.4907 571.5701 54.5905 570.7328 61.1642 571.9906 64.937 575.0296 68.1304 581.7804 67.1908 587.6508 67.7791 Z" id="BAKER"/>
<path d="M 224.7595 1.1482 221.4945 3.5149 221.4515 7.1311 219.6525 7.8289 216.8482 11.2363 214.1734 18.5069 213.7087 22.2414 211.9213 24.8113 212.143 27.6504 199.8524 27.3917 199.9062 24.3414 198.1543 22.7933 190.8204 22.7086 189.8976 25.3463 190.6342 28.1574 188.3774 31.9518 168.0757 31.7254 168.3579 1.9229 224.7595 1.1482 Z" id="HOLMES"/>
<path d="M 793.9452 424.6452 792.7502 424.6374 791.5804 424.6298 788.418 426.1299 764.5689 425.9246 738.986 425.9266 710.183 425.8347 732.0526 408.7648 731.9947 399.876 763.7959 399.9042 773.318 399.793 776.4429 400.7022 779.6594 399.9402 781.0962 402.782 784.4146 405.5736 787.7859 410.0702 787.7933 411.6745 793.2547 422.1144 793.9452 424.6452 Z M 778.2237 393.8542 779.3796 398.3716 775.505 399.3437 773.3652 396.9915 773.3985 393.8035 778.2237 393.8542 Z" id="MARTIN"/>
<path d="M 581.8019 298.2482 587.0092 298.2569 587.0663 323.329 587.2205 353.5132 534.871 353.6232 538.8178 350.8541 539.5111 348.014 543.8891 346.3454 543.7106 343.7717 548.9502 339.2708 551.0331 338.4594 552.7386 334.6816 551.1391 331.0978 551.3372 328.6329 549.7862 326.6499 550.6651 321.8317 546.7083 323.4606 544.367 322.3278 541.8878 325.0665 542.8015 328.2895 542.2747 330.939 544.0359 333.1209 536.2808 333.7737 535.2251 329.9171 537.2261 328.3743 537.7587 322.4313 535.0471 319.4497 528.1744 319.3095 529.434 317.3097 527.371 314.2515 524.6946 313.3343 524.4078 298.0853 548.9239 298.3365 581.8019 298.2482 Z" id="HILLSBOROUGH"/>
<path d="M 587.2205 353.5132 587.0675 385.9625 586.9476 399.6817 566.244 399.5577 566.3731 380.9193 545.8815 380.914 533.3569 380.6115 532.1892 377.3846 527.1362 375.6451 524.7292 373.5913 525.1324 369.5772 523.3046 369.4794 521.4748 366.1816 524.8214 365.9806 528.7404 367.9782 529.8367 365.8262 532.9911 363.3921 532.5173 358.3368 534.871 353.6232 587.2205 353.5132 Z" id="MANATEE"/>
<path d="M 626.585 93.1124 625.61 99.323 625.7595 103.2252 627.5591 105.1417 634.1198 109.2223 635.158 111.8755 634.2022 115.7511 637.0257 122.7821 612.6265 123.1181 607.6442 126.6498 601.2795 128.4209 599.2354 132.47 592.2171 133.267 589.8665 135.4959 587.7225 135.5211 588.0478 132.4659 587.7281 90.8321 587.7312 86.243 598.1581 86.2576 626.6528 85.8388 625.4601 91.2415 626.585 93.1124 Z" id="CLAY"/>
<path d="M 638.8707 353.5055 638.8259 385.707 607.772 385.7392 607.7692 386.1011 587.0675 385.9625 587.2205 353.5132 613.6605 353.5591 638.8707 353.5055 Z" id="HARDEE"/>
<path d="M 626.5167 176.967 630.6049 181.9538 630.9192 206.1056 628.7809 206.0867 628.8109 215.2688 597.7291 215.3223 560.1289 215.2907 557.061 212.4947 551.1205 209.3412 549.063 209.73 546.0212 207.0763 542.6912 205.6074 540.5024 206.7162 536.5745 206.4013 536.5556 188.5225 550.5182 188.4473 550.1101 160.0803 570.6015 160.1716 570.4439 165.5351 571.9436 166.706 579.7861 165.9848 586.9689 164.7661 587.2904 161.6429 589.5744 159.3193 596.3478 158.1978 599.9477 156.8595 602.0878 157.9295 609.4194 156.2965 609.4726 159.9721 616.4856 159.8716 616.6427 165.9641 620.1266 165.8886 620.1476 172.0872 627.8081 172.0101 628.6244 175.4203 626.5167 176.967 Z" id="MARION"/>
<path d="M 720.3033 233.0772 715.4101 233.0806 713.6114 233.0822 701.5225 233.1915 701.8504 251.8184 699.3737 251.8179 697.4401 249.4061 696.3637 243.3213 691.7494 237.2711 692.4332 234.0463 690.1734 230.1543 685.5417 229.3622 684.6187 232.1072 680.5305 233.5239 675.7591 231.7098 674.4364 228.7606 664.5931 228.4877 662.2813 227.194 659.5007 223.843 661.0013 216.7611 658.95 211.7944 655.6815 207.6449 652.2717 206.1072 649.6258 203.149 649.9592 201.2697 645.3255 200.9013 645.0484 198.2331 642.2459 192.5578 639.2598 190.1369 633.7124 189.7353 631.419 185.3479 630.6049 181.9538 626.5167 176.967 650.4249 171.3361 652.4478 169.1692 653.8662 169.0674 654.2332 183.626 682.3588 183.148 681.7597 167.834 686.7539 166.2016 686.6342 170.4277 689.4744 174.0198 694.565 185.9167 698.5917 192.8469 700.096 196.5333 707.5025 205.7373 707.087 210.3112 711.4941 216.9287 717.8336 230.0162 720.3033 233.0772 Z M 726.2414 233.0525 725.6167 233.0565 722.9501 228.5963 718.0932 222.4357 717.5918 220.6249 712.6054 213.6893 710.0845 212.6626 709.0585 206.8656 713.852 214.4766 719.6169 222.7624 726.2414 233.0525 Z" id="VOLUSIA"/>
<path d="M 495.9425 124.3979 492.9675 131.4367 491.9811 139.1071 492.2451 143.8853 490.6615 147.0711 494.299 148.9106 493.0054 152.5857 489.9056 154.801 489.6418 159.7437 485.3988 165.8274 485.9847 166.6596 482.6854 171.195 481.1919 174.4272 476.1754 176.8199 471.807 176.4446 467.9492 172.6944 465.6802 169.1242 465.5867 166.517 463.0804 165.4996 456.9876 164.6504 455.3194 161.0471 447.9976 156.3678 444.734 150.1798 446.1373 147.0724 445.249 140.5141 448.4176 141.0653 450.841 137.8113 451.3303 132.9208 454.0911 129.1748 454.168 124.5518 492.0246 124.2553 495.9425 124.3979 Z" id="DIXIE"/>
<path d="M 659.5007 223.843 657.7607 226.745 653.9566 230.4748 654.5083 233.6588 630.0989 233.6413 628.851 235.6509 628.9744 253.9915 628.9743 279.8167 615.0463 279.8695 615.042 278.2532 608.0364 278.2242 608.0171 279.9201 597.4845 279.9227 597.7013 256.7578 597.8117 226.0145 597.7291 215.3223 628.8109 215.2688 628.7809 206.0867 630.9192 206.1056 630.6049 181.9538 631.419 185.3479 633.7124 189.7353 639.2598 190.1369 642.2459 192.5578 645.0484 198.2331 645.3255 200.9013 649.9592 201.2697 649.6258 203.149 652.2717 206.1072 655.6815 207.6449 658.95 211.7944 661.0013 216.7611 659.5007 223.843 Z" id="LAKE"/>
<path d="M 523.8676 151.6843 523.8688 154.7563 534.3745 154.5477 534.3416 160.5955 540.7089 160.0239 550.1101 160.0803 550.5182 188.4473 536.5556 188.5225 536.5745 206.4013 528.4376 210.1361 520.4012 207.5625 518.0802 207.8532 513.2418 211.5915 513.361 206.3389 514.1433 204.2339 511.2664 203.2918 509.3802 200.5403 507.9369 194.2274 504.7587 194.0039 502.6703 192.3112 499.8362 193.3528 495.6844 192.6255 492.5985 191.1525 483.5411 192.7772 480.5711 189.1379 479.9524 183.9595 475.0404 180.7617 471.3163 180.198 473.2026 177.6812 476.1754 176.8199 481.1919 174.4272 482.6854 171.195 485.9847 166.6596 485.3988 165.8274 489.6418 159.7437 489.9056 154.801 493.0054 152.5857 494.299 148.9106 502.7814 149.6342 511.5755 149.5581 513.3466 151.9177 523.8676 151.6843 Z" id="LEVY"/>
<path d="M 597.7291 215.3223 597.8117 226.0145 597.7013 256.7578 597.4845 279.9227 597.4495 283.8304 590.0291 282.3353 587.0244 283.513 587.1055 266.0088 587.0739 261.3636 582.7645 261.0775 578.6537 257.3002 570.9324 256.0923 569.5476 253.7924 564.0175 247.3424 565.2355 246.0649 566.7824 240.744 571.0946 236.6485 572.9802 236.452 574.1027 231.8399 573.614 229.6697 568.5849 226.2384 567.4427 224.1218 563.8941 221.568 561.6582 216.5046 560.1289 215.2907 597.7291 215.3223 Z" id="SUMTER"/>
<path d="M 699.3737 251.8179 663.6535 252.1053 663.592 248.9983 649.7782 248.9884 649.8156 241.2619 651.9933 240.8506 653.8885 238.3991 654.5083 233.6588 653.9566 230.4748 657.7607 226.745 659.5007 223.843 662.2813 227.194 664.5931 228.4877 674.4364 228.7606 675.7591 231.7098 680.5305 233.5239 684.6187 232.1072 685.5417 229.3622 690.1734 230.1543 692.4332 234.0463 691.7494 237.2711 696.3637 243.3213 697.4401 249.4061 699.3737 251.8179 Z" id="SEMINOLE"/>
<path d="M 654.5083 233.6588 653.8885 238.3991 651.9933 240.8506 649.8156 241.2619 649.7782 248.9884 663.592 248.9983 663.6535 252.1053 699.3737 251.8179 703.0925 253.1156 705.4588 257.0199 704.4879 259.9777 707.9934 262.5433 710.2001 262.7045 711.7185 266.7271 709.6 267.0455 708.5717 270.78 710.2749 273.1368 709.8849 275.7275 712.5251 279.7465 691.6417 279.7599 649.9908 279.696 628.9743 279.8167 628.9744 253.9915 628.851 235.6509 630.0989 233.6413 654.5083 233.6588 Z" id="ORANGE"/>
<path d="M 560.1289 215.2907 561.6582 216.5046 563.8941 221.568 567.4427 224.1218 568.5849 226.2384 573.614 229.6697 574.1027 231.8399 572.9802 236.452 571.0946 236.6485 566.7824 240.744 565.2355 246.0649 548.9788 246.2743 548.909 243.2042 525.9084 243.269 524.8693 240.409 526.101 236.3336 523.5261 236.5069 522.0188 234.1958 523.8478 230.2331 526.3429 227.6417 526.1963 222.323 521.4635 221.4251 521.6893 219.5952 518.1907 217.765 513.2418 211.5915 518.0802 207.8532 520.4012 207.5625 528.4376 210.1361 536.5745 206.4013 540.5024 206.7162 542.6912 205.6074 546.0212 207.0763 549.063 209.73 551.1205 209.3412 557.061 212.4947 560.1289 215.2907 Z" id="CITRUS"/>
<path d="M 525.9084 243.269 548.909 243.2042 548.9788 246.2743 565.2355 246.0649 564.0175 247.3424 569.5476 253.7924 570.9324 256.0923 578.6537 257.3002 582.7645 261.0775 587.0739 261.3636 587.1055 266.0088 566.2488 265.9865 566.2522 270.5715 552.1592 270.6995 522.7489 270.7056 523.4946 264.9329 523.1477 260.668 524.7898 260.47 525.506 253.8163 525.1351 250.2771 525.9084 243.269 Z" id="HERNANDO"/>
<path d="M 524.4078 298.0853 524.6946 313.3343 522.1368 315.2247 519.3012 319.0721 524.6958 318.6198 524.6926 319.91 517.6289 320.5295 516.5872 322.5847 519.2882 324.3992 524.6517 325.8497 527.8659 328.4068 533.1019 327.6056 533.255 329.2589 528.8975 329.8881 530.6422 332.6487 527.5286 335.1799 528.5005 338.4041 526.4475 339.9958 525.3083 343.3569 525.981 347.4459 523.1981 348.3402 519.9599 343.4078 518.0632 343.5999 515.2663 341.5884 513.1998 336.9803 514.0081 333.7068 509.2962 335.6688 505.2684 334.84 503.5237 331.8413 502.8442 327.6103 505.5172 326.9022 507.985 319.0218 509.4827 316.2028 509.5612 312.0407 511.3672 308.1167 511.2623 304.6285 509.7787 300.1373 510.9396 298.1189 524.4078 298.0853 Z" id="PINELLAS"/>
<path d="M 509.3123 70.4443 509.3949 107.3485 512.9372 107.3193 512.7105 109.6095 510.323 110.6349 508.7406 113.0261 505.2855 115.0547 502.9942 115.0014 500.4015 117.7716 496.8094 115.7836 494.9906 110.4107 492.8809 110.2843 491.6231 106.7098 487.3952 104.7859 486.3478 102.5479 480.7728 99.0513 480.3912 97.3394 470.8911 94.3599 468.1141 95.8748 463.9761 93.9444 463.3791 88.4444 461.5653 86.6528 462.4637 81.9805 461.5089 78.4997 463.5898 74.5424 465.5996 73.1427 465.3295 69.6454 467.4364 66.5083 469.6875 65.3765 471.4043 62.0183 474.8222 60.4075 478.8697 59.8076 479.7288 61.1021 484.0851 60.5883 492.3518 62.4083 495.0402 64.9498 502.6979 68.1832 504.1012 70.0397 509.3123 70.4443 Z" id="SUWANNEE"/>
<path d="M 643.5776 46.4857 647.5361 50.2581 647.831 53.3508 650.0182 58.8249 649.2027 59.5174 649.3062 65.3492 651.5016 68.3202 651.5293 72.2715 653.2496 73.5395 652.5981 79.3428 652.1678 79.3473 652.5439 94.815 641.4339 94.9635 633.5039 91.8545 626.585 93.1124 625.4601 91.2415 626.6528 85.8388 598.1581 86.2576 587.7312 86.243 587.7247 77.1476 611.35 56.0965 614.1121 52.9737 617.324 52.0858 617.5855 49.8966 620.4226 49.591 620.715 47.0806 624.6265 45.9926 628.3782 47.5054 632.0617 44.4395 635.9857 46.3476 637.141 49.1912 642.2633 50.443 643.5776 46.4857 Z M 658.0986 79.2856 653.4118 79.3342 654.4886 75.5127 652.5058 71.6813 651.5044 66.0081 654.8332 64.1082 656.6974 64.7557 655.874 70.0721 658.0986 79.2856 Z M 652.2246 55.9682 654.9066 55.923 654.7723 58.6151 651.8588 58.8444 652.2246 55.9682 Z M 650.2739 64.9512 650.4791 59.6605 652.848 60.2776 653.9179 63.4481 650.2739 64.9512 Z" id="DUVAL"/>
<path d="M 461.5089 78.4997 462.4637 81.9805 461.5653 86.6528 463.3791 88.4444 463.9761 93.9444 468.1141 95.8748 470.8911 94.3599 480.3912 97.3394 480.7728 99.0513 486.3478 102.5479 487.3952 104.7859 491.6231 106.7098 492.8809 110.2843 494.9906 110.4107 496.8094 115.7836 500.4015 117.7716 500.5622 120.3609 498.9341 124.1173 495.9425 124.3979 492.0246 124.2553 454.168 124.5518 450.5911 124.5605 450.6003 117.7005 448.7581 117.6669 448.7371 104.5886 449.0767 78.4702 461.5089 78.4997 Z" id="LAFAYETTE"/>
<path d="M 265.098 84.8777 262.6336 87.8089 263.3911 90.7841 261.6164 94.3666 262.8006 96.7266 263.0116 101.3144 266.7045 104.145 274.1715 107.2482 274.61 108.8711 275.3385 110.9811 271.6166 116.1133 275.1833 126.1445 273.2404 128.8649 270.0513 128.5497 269.108 130.2563 265.7811 129.3827 255.6206 136.2529 254.9381 137.2309 251.8603 139.3244 245.015 137.2859 244.9195 130.7795 245.6501 125.9138 243.8875 122.345 241.3996 120.8475 239.8563 116.9429 236.3752 113.4304 236.1061 102.3903 236.1322 101.4276 236.1364 100.6194 236.1493 100.0636 236.2986 84.7149 265.098 84.8777 Z" id="GULF"/>
<path d="M 577.9229 90.8714 577.3496 94.3632 575.0787 95.4368 573.9934 98.442 569.1763 102.3226 565.5963 102.9234 563.535 107.0763 559.3783 110.6793 556.9555 109.9576 555.889 112.5086 548.8715 114.0046 541.7856 112.1937 537.2059 112.1071 537.0797 110.571 533.0547 108.5511 532.6535 104.7582 535.6048 103.7927 536.5611 100.1405 538.3234 97.8823 544.7451 95.1039 544.692 91.5667 555.1031 91.0692 577.9229 90.8714 Z" id="UNION"/>
<path d="M 587.7281 90.8321 588.0478 132.4659 587.7225 135.5211 587.1948 135.516 587.5247 133.6761 584.6122 129.5321 581.4583 128.6582 579.8907 124.4572 577.5063 122.8465 572.9334 121.8739 563.2509 122.2223 557.6341 118.6483 551.1342 117.8934 548.8715 114.0046 555.889 112.5086 556.9555 109.9576 559.3783 110.6793 563.535 107.0763 565.5963 102.9234 569.1763 102.3226 573.9934 98.442 575.0787 95.4368 577.3496 94.3632 577.9229 90.8714 587.7281 90.8321 Z" id="BRADFORD"/>
<path d="M 374.5527 77.0981 374.4774 95.4168 367.8242 95.2796 365.4502 97.851 363.9819 95.955 356.9534 94.4275 353.7151 95.5948 353.2781 98.8649 347.3021 97.5476 343.9399 99.8241 342.1597 104.237 345.3311 107.5453 342.673 108.3338 342.6206 108.3228 342.5359 108.2924 342.3574 108.2282 340.0699 107.0578 336.6316 108.083 333.1281 105.539 331.2327 107.0537 328.2731 107.0574 325.2605 104.7449 320.5422 102.9204 317.7091 99.054 316.1075 99.0419 312.3174 93.0358 312.5377 88.0224 309.0294 80.0433 306.1165 78.9004 305.7299 75.6975 307.4534 74.3126 356.4936 73.9896 357.1553 77.0687 374.5527 77.0981 Z" id="WAKULLA"/>
<path d="M 749.8865 334.709 749.8157 335.0475 711.9274 334.9892 711.9017 307.4028 712.5763 307.3883 712.5251 279.7465 709.8849 275.7275 710.2749 273.1368 708.5717 270.78 709.6 267.0455 711.7185 266.7271 710.2001 262.7045 707.9934 262.5433 704.4879 259.9777 705.4588 257.0199 703.0925 253.1156 699.3737 251.8179 701.8504 251.8184 701.5225 233.1915 713.6114 233.0822 715.3163 240.8371 715.9027 247.0062 719.2021 255.4241 718.9639 257.7363 721.039 260.6344 720.8139 262.7056 723.056 267.451 723.483 270.5195 726.8454 278.5121 726.967 280.2121 731.3112 289.9474 733.055 292.7387 737.7473 303.7556 741.8044 311.5016 746.3439 319.225 748.7461 325.397 751.5629 329.9902 749.8865 334.709 Z M 725.6167 233.0565 726.2414 233.0525 730.7953 239.7789 742.3622 254.2381 744.0427 260.0263 747.8925 268.8227 744.1277 270.2725 741.3104 273.2427 740.1521 278.9169 739.6486 287.7244 740.597 295.7959 744.5783 312.3088 739.9708 301.9197 739.9453 299.5446 737.9817 294.0288 739.4627 287.2189 738.6184 285.8242 739.0135 279.9343 737.9379 274.9947 739.7694 271.5926 742.5981 258.6046 740.8768 253.4925 735.6919 251.5626 732.7274 252.7835 733.0088 254.5382 723.3756 253.0434 720.3427 248.7002 722.0037 244.4192 724.5579 241.7746 733.3703 247.2965 734.5254 245.2682 730.045 240.4709 729.9641 239.0161 725.6167 233.0565 Z M 734.9324 253.367 737.6386 253.7802 739.4027 257.2482 738.1346 262.1754 736.1552 263.3921 733.6252 271.3612 733.2243 275.5066 734.0262 282.4186 732.7407 283.9584 729.0517 280.8866 729.1833 278.5685 727.49 275.7811 727.3212 269.1414 726.1257 266.1837 726.7479 259.0484 729.7929 259.2329 729.6755 255.5498 733.8984 255.2075 734.9324 253.367 Z M 720.3033 233.0772 723.8189 238.4042 720.5207 237.727 720.0725 235.966 715.4101 233.0806 720.3033 233.0772 Z" id="BREVARD"/>
<path d="M 628.9743 279.8167 628.9963 289.0582 639.4991 289.0523 642.9673 295.1485 642.9541 301.2932 650.1662 301.2766 650.2297 307.3376 661.7033 307.3982 659.7174 309.1516 658.6459 313.1973 651.7809 312.7962 653.9301 316.1005 657.4038 315.9428 658.5396 318.4923 662.7969 321.6147 662.0738 323.0523 665.3543 324.7447 666.1056 330.6967 668.4961 332.0347 672.2746 332.2542 675.498 334.271 679.1457 340.1244 680.4087 345.0776 682.6974 346.7056 683.1784 353.871 663.425 353.5266 638.8707 353.5055 613.6605 353.5591 587.2205 353.5132 587.0663 323.329 587.0092 298.2569 581.8019 298.2482 581.7986 289.0521 586.9909 289.0655 587.0244 283.513 590.0291 282.3353 597.4495 283.8304 597.4845 279.9227 608.0171 279.9201 608.0364 278.2242 615.042 278.2532 615.0463 279.8695 628.9743 279.8167 Z" id="POLK"/>
<path d="M 712.5251 279.7465 712.5763 307.3883 711.9017 307.4028 711.9274 334.9892 710.6438 335.0037 711.3955 344.3361 711.4711 353.989 683.1784 353.871 682.6974 346.7056 680.4087 345.0776 679.1457 340.1244 675.498 334.271 672.2746 332.2542 668.4961 332.0347 666.1056 330.6967 665.3543 324.7447 662.0738 323.0523 662.7969 321.6147 658.5396 318.4923 657.4038 315.9428 653.9301 316.1005 651.7809 312.7962 658.6459 313.1973 659.7174 309.1516 661.7033 307.3982 650.2297 307.3376 650.1662 301.2766 642.9541 301.2932 642.9673 295.1485 639.4991 289.0523 628.9963 289.0582 628.9743 279.8167 649.9908 279.696 691.6417 279.7599 712.5251 279.7465 Z" id="OSCEOLA"/>
<path d="M 683.1784 353.871 683.4499 357.9219 675.8681 366.3979 676.539 369.9029 679.0609 370.8642 683.5143 375.896 683.082 377.7948 686.2882 381.0543 691.4935 381.5575 694.8641 384.5464 695.3919 389.6426 698.4722 390.5708 698.0994 393.37 701.1124 398.5732 704.3652 399.8644 702.125 399.359 680.3707 399.4848 680.4552 408.7692 669.9846 408.8161 670.0296 418.1561 638.943 417.9983 638.8259 385.707 638.8707 353.5055 663.425 353.5266 683.1784 353.871 Z" id="HIGHLANDS"/>
<path d="M 638.6132 445.7779 638.8271 472.7783 639.0121 482.2991 628.7748 482.4624 628.9441 493.335 611.9813 493.4874 609.2614 492.034 607.4673 489.1081 610.0357 488.7118 608.8413 484.2413 609.2458 482.2119 607.4596 479.1326 605.0648 480.4113 601.3733 479.6023 598.8058 477.3248 594.5003 475.8649 594.6066 473.2417 599.3073 470.2887 603.8623 464.512 604.812 459.6335 609.6481 456.2527 609.0989 454.0942 604.649 457.148 601.6457 460.1076 602.1229 462.7499 600.6154 464.4001 598.3105 469.9142 593.2983 470.036 588.5491 471.5795 585.5402 466.8595 587.7791 464.1616 586.77 460.0437 584.6728 457.7867 584.1229 451.4488 585.8219 445.691 626.5843 445.8695 638.6132 445.7779 Z M 577.1557 453.5561 579.3886 453.7739 582.2921 465.4399 583.6187 466.9422 584.8455 475.0077 582.6711 474.7904 579.9256 465.9951 578.4481 458.7509 575.1596 456.8951 575.382 453.8881 577.1557 453.5561 Z M 573.1303 472.2936 574.4089 475.0581 580.1633 479.0379 586.7784 478.6226 589.5901 480.1756 584.2802 482.377 579.6378 480.8655 573.746 476.3499 573.1303 472.2936 Z" id="LEE"/>
<path d="M 710.7648 499.4767 710.8214 508.6224 711.4869 528.9233 711.4811 547.2058 688.7679 547.4885 671.2848 547.3857 668.8469 547.4031 668.7164 547.4041 664.0399 544.4398 660.0811 544.3287 657.2297 542.0205 653.251 541.1799 648.6728 538.4163 645.1203 538.6192 644.5405 536.257 637.7391 534.5824 630.6983 533.4881 629.0302 535.3265 624.8644 533.8074 621.4949 535.8767 619.6246 530.1556 621.2984 529.3882 624.6341 531.8009 627.1679 531.9433 628.5033 528.0459 625.8351 528.5317 620.2991 525.5513 619.1999 522.7831 616.4695 520.9793 616.402 518.8336 613.6863 516.6416 611.8801 505.9658 611.2832 496.9329 609.2614 492.034 611.9813 493.4874 628.9441 493.335 628.7748 482.4624 639.0121 482.2991 638.8271 472.7783 669.56 472.3712 669.8858 500.1248 710.7648 499.4767 Z" id="COLLIER"/>
<path d="M 711.4869 528.9233 731.7976 529.0064 731.7959 531.2966 772.3599 531.289 772.3208 529.8965 790.8863 529.3758 789.2683 536.148 785.589 540.9323 783.2695 552.1315 778.406 554.8094 777.4355 558.6639 774.4263 563.9769 772.1098 565.6654 770.8909 568.4349 771.3463 571.436 770.6577 575.0631 769.2569 575.5782 767.8609 579.6095 769.2725 586.9579 769.0159 589.5338 771.3728 591.5097 767.9229 596.5135 763.9511 598.8053 763.838 600.7542 759.2366 603.9937 758.5699 607.0815 757.1591 606.7592 751.6667 608.0587 751.99 609.9512 750.9501 606.5165 744.2991 608.0496 741.009 611.5073 737.6167 611.1491 731.6854 613.0665 728.601 615.7559 726.8614 613.9637 722.5222 614.991 713.0635 612.4762 712.674 606.4352 712.6356 593.6721 711.4881 593.6622 711.4194 572.7606 711.4811 547.2058 711.4869 528.9233 Z" id="DADE"/>
<path d="M 711.4811 547.2058 711.4194 572.7606 711.4881 593.6622 712.6356 593.6721 712.674 606.4352 713.0635 612.4762 709.0877 613.6838 708.1006 616.5228 699.8643 617.5719 697.44 618.8332 693.792 618.3797 688.6701 619.0854 683.0734 614.5441 682.4397 610.3637 679.8642 607.2251 681.0564 601.1206 683.0572 597.8356 685.4293 597.6928 690.9313 603.2543 690.5519 605.5827 697.9758 609.3275 702.5522 610.1655 706.0319 608.8551 708.1092 606.2611 707.3679 603.3452 704.3659 602.4779 702.2429 597.7916 698.4242 595.3759 695.8648 597.1194 687.4846 592.3113 682.5667 590.7336 682.5063 586.6296 680.5306 584.0071 680.6555 580.4 678.5991 580.4596 675.9235 578.102 678.0805 573.8487 683.1074 572.353 688.6376 573.4679 694.6211 577.046 693.7354 573.7372 686.5994 569.9643 685.3942 566.6434 683.2865 567.676 681.9628 570.9868 679.9831 572.6599 676.7489 573.0607 672.7709 568.1614 669.4345 558.6078 675.4281 555.8318 677.0323 554.338 674.296 551.9804 670.9839 550.5753 671.2848 547.3857 688.7679 547.4885 711.4811 547.2058 Z M 777.0853 594.5375 774.673 599.7397 771.0795 605.4206 769.2738 606.6485 767.5456 611.0577 765.17 613.0885 764.1306 617.4359 760.4291 620.6727 757.9901 621.1377 754.8427 623.9152 751.7875 628.801 744.2755 634.7916 746.5188 630.2545 748.8231 630.2693 749.6478 627.7178 752.9905 625.1438 757.2725 619.9286 758.7814 616.4836 761.462 615.4931 763.966 609.4108 767.0528 607.8068 768.5204 604.2644 765.4837 601.3744 769.9922 600.6739 772.8144 598.2765 774.5307 595.0416 777.0853 594.5375 Z M 668.9679 549.6633 667.4872 551.8947 667.79 556.5892 664.6515 557.0951 663.2006 554.3049 662.5057 550.0339 668.1536 547.9232 668.9679 549.6633 Z M 642.6428 665.7 644.7332 669.1102 644.3789 671.2008 640.3695 672.267 636.0516 674.4487 632.9512 673.8399 633.1541 670.3726 636.5518 668.9863 635.6667 672.525 639.2311 672.0758 643.3648 668.2242 642.6428 665.7 Z M 630.164 674.4186 627.5165 675.3949 627.8839 677.7584 623.2218 678.3659 623.3358 675.6779 630.164 674.4186 Z M 644.4728 663.2763 646.0288 663.4845 648.6191 667.3554 645.8077 667.2439 643.6453 665.4458 644.4728 663.2763 Z M 694.9627 659.61 690.5875 662.55 689.5786 660.7931 694.9627 659.61 Z M 621.4675 676.7339 620.611 678.5132 613.3212 679.7128 619.8256 676.1343 621.4675 676.7339 Z" id="MONROE"/>
<path d="M 49.737 1 89.3885 1.4719 88.3579 43.5406 87.9933 61.7198 82.4493 62.9165 77.7667 62.8787 61.7625 65.4511 59.2 65.4875 53.724 67.5406 51.7143 67.3298 46.9553 68.8941 47.7861 65.9452 50.8682 66.8129 52.0032 65.0632 57.0392 63.2565 63.5075 63.4053 67.0534 62.2495 74.3292 57.5328 67.6664 53.0497 65.4825 49.615 68.0085 44.2402 66.0548 44.3149 64.8275 47.4108 63.1096 48.1082 59.8978 58.2585 56.6556 57.8719 57.3868 55.3107 56.7734 49.5934 53.4124 49.0171 51.1956 44.2869 48.2848 43.9939 47.8754 48.5418 44.6091 47.397 42.0156 43.1788 39.4319 40.5576 38.5247 31.1108 34.4257 29.4249 34.217 24.6831 36.0583 20.4713 33.8703 16.5273 36.971 12.4079 37.2096 8.5738 39.9993 7.8478 41.8647 4.6064 43.8934 4.5131 49.737 1 Z" id="SANTA ROSA"/>
<path d="M 168.3579 1.9229 168.0757 31.7254 188.3774 31.9518 185.2855 34.206 185.3384 36.424 181.0273 39.089 181.1847 42.8071 183.6602 44.9045 184.736 47.4869 184.8003 51.9502 187.0011 53.6561 180.9108 59.752 176.9587 59.129 174.9724 60.0346 172.8492 64.9049 172.5336 76.593 167.7988 74.4553 144.1916 67.6164 130.2923 64.9415 130.3567 62.9675 134.4619 64.0305 140.2967 62.3503 147.3887 63.8408 149.142 60.4125 151.5033 62.7554 155.474 64.4634 160.765 64.0961 158.4471 59.778 155.7496 57.0992 151.7841 56.4017 149.4177 53.6741 147.8092 54.7433 143.3947 53.9554 140.783 55.0325 137.9333 54.5724 132.592 55.9127 130.576 57.4759 130.8662 37.3476 130.825 26.8731 131.1924 2.1307 150.6106 1.8039 168.3579 1.9229 Z" id="WALTON"/>
<path d="M 291.5315 31.043 292.1922 32.5255 289.1076 36.0997 286.9174 40.7642 284.3653 42.1027 260.12 41.9334 259.1605 46.5239 236.8483 46.285 231.4657 46.2164 231.8084 23.2612 226.4638 23.2235 226.5285 18.6236 214.1734 18.5069 216.8482 11.2363 219.6525 7.8289 221.4515 7.1311 221.4945 3.5149 224.7595 1.1482 276.7536 1.0051 278.7038 4.04 279.0289 7.4265 283.355 12.435 284.757 16.581 283.851 19.3741 285.2975 25.7379 288.4608 27.2088 291.5315 31.043 Z" id="JACKSON"/>
<path d="M 231.4657 46.2164 226.1358 46.198 225.9549 59.9426 187.5507 59.5205 184.4785 62.6379 180.0575 62.0599 176.4493 62.5464 172.8492 64.9049 174.9724 60.0346 176.9587 59.129 180.9108 59.752 187.0011 53.6561 184.8003 51.9502 184.736 47.4869 183.6602 44.9045 181.1847 42.8071 181.0273 39.089 185.3384 36.424 185.2855 34.206 188.3774 31.9518 190.6342 28.1574 189.8976 25.3463 190.8204 22.7086 198.1543 22.7933 199.9062 24.3414 199.8524 27.3917 212.143 27.6504 211.9213 24.8113 213.7087 22.2414 214.1734 18.5069 226.5285 18.6236 226.4638 23.2235 231.8084 23.2612 231.4657 46.2164 Z" id="WASHINGTON"/>
<path d="M 643.5776 46.4857 642.2633 50.443 637.141 49.1912 635.9857 46.3476 632.0617 44.4395 628.3782 47.5054 624.6265 45.9926 620.715 47.0806 620.4226 49.591 617.5855 49.8966 617.324 52.0858 614.1121 52.9737 611.35 56.0965 587.7247 77.1476 587.6508 67.7791 589.017 66.7937 588.2354 63.3884 589.369 61.6552 591.0312 55.1481 590.987 50.412 592.3009 46.4247 591.263 42.5849 588.7625 39.2145 587.673 35.1995 589.084 31.566 588.4353 28.7101 591.6813 25.5843 591.0748 22.6514 595.6547 24.0066 597.9368 19.2455 608.4366 22.6184 613.2051 22.7796 616.0149 25.781 617.5891 24.6561 622.297 27.5706 625.3256 27.5535 632.1267 28.8138 636.3469 31.8984 646.1828 35.6687 646.3548 40.1521 643.5776 46.4857 Z M 650.0415 32.6257 653.1396 33.7429 651.5196 42.8449 651.6386 50.89 649.4199 48.3046 650.1177 45.4893 648.7249 43.1271 647.6438 36.6846 649.7256 35.3164 650.0415 32.6257 Z" id="NASSAU"/>
<path d="M 704.3652 399.8644 707.7448 403.2919 711.6699 406.0324 710.183 425.8347 703.897 445.8249 687.0981 445.9271 652.3776 445.8749 638.6132 445.7779 638.943 417.9983 670.0296 418.1561 669.9846 408.8161 680.4552 408.7692 680.3707 399.4848 702.125 399.359 704.3652 399.8644 Z" id="GLADES"/>
<path d="M 595.1501 417.8449 638.943 417.9983 638.6132 445.7779 626.5843 445.8695 585.8219 445.691 587.0751 442.9914 587.2421 434.7846 583.5536 433.4004 583.1786 429.3558 589.1657 426.8319 592.5565 426.3618 594.0076 424.9045 595.1501 417.8449 Z M 555.6221 427.2305 566.0205 427.2904 566.072 421.9206 568.1321 425.4272 572.9115 427.8118 577.1599 438.2953 577.3237 442.3339 574.8073 441.0871 571.7889 441.7689 567.0576 441.1345 562.8689 435.9516 560.1439 434.4592 555.6221 427.2305 Z M 586.8833 418.159 593.6101 418.0806 594.2072 420.0053 590.7367 425.0381 587.2617 424.9232 586.2967 426.3002 582.1234 426.2611 575.4413 428.8151 572.4296 425.0278 568.4363 424.4653 566.077 421.0893 566.0849 418.0846 586.8833 418.159 Z" id="CHARLOTTE"/>
<path d="M 586.9476 399.6817 586.8833 418.159 566.0849 418.0846 566.077 421.0893 566.072 421.9206 566.0205 427.2904 555.6221 427.2305 554.2185 427.2306 553.4742 427.2255 545.5425 414.866 544.9225 411.2288 543.4845 409.4394 539.0308 400.2833 540.129 398.0334 537.4326 395.2878 533.2641 393.1327 535.1065 391.0978 536.8726 386.6352 534.9495 386.2901 533.3569 380.6115 545.8815 380.914 566.3731 380.9193 566.244 399.5577 586.9476 399.6817 Z" id="SARASOTA"/>
<path d="M 638.8259 385.707 638.943 417.9983 595.1501 417.8449 593.6101 418.0806 586.8833 418.159 586.9476 399.6817 587.0675 385.9625 607.7692 386.1011 607.772 385.7392 638.8259 385.707 Z" id="DESOTO"/>
<path d="M 672.2036 141.7424 674.8586 143.3128 678.5222 151.5167 681.9099 156.4301 683.1746 160.7288 686.7539 166.2016 681.7597 167.834 682.3588 183.148 654.2332 183.626 653.8662 169.0674 652.4478 169.1692 650.1953 170.0991 647.7264 169.001 646.9086 164.3898 643.3607 158.4835 643.0367 145.6179 664.0253 145.2868 666.8735 142.5625 670.5256 140.9949 672.2036 141.7424 Z M 687.4763 166.1718 687.2539 166.1809 684.7221 162.7703 682.3231 155.9158 679.0683 151.6349 675.4648 140.5678 675.7884 140.5685 680.7287 152.3173 687.4763 166.1718 Z" id="FLAGLER"/>
<path d="M 710.6038 491.6463 710.7648 499.4767 669.8858 500.1248 669.56 472.3712 638.8271 472.7783 638.6132 445.7779 652.3776 445.8749 687.0981 445.9271 703.897 445.8249 710.183 425.8347 710.1322 458.8767 710.7511 490.2756 710.6038 491.6463 Z" id="HENDRY"/>
<path d="M 765.7005 362.8979 731.8792 362.784 721.5739 362.7577 721.4652 353.8816 711.4711 353.989 711.3955 344.3361 710.6438 335.0037 711.9274 334.9892 749.8157 335.0475 749.8865 334.709 752.6563 332.5634 757.2599 341.6089 761.1237 347.5183 763.3132 353.3491 765.7005 362.8979 Z M 769.4493 362.9008 767.8966 362.9092 768.1113 360.6188 765.487 356.7056 764.6404 351.036 762.9368 348.8187 763.5271 344.8914 769.4493 362.9008 Z" id="INDIAN RIVER"/>
<path d="M 793.8226 492.4915 793.2457 499.208 791.6892 505.4615 790.461 516.7541 791.8706 517.12 790.8863 529.3758 772.3208 529.8965 772.3599 531.289 731.7959 531.2966 731.7976 529.0064 711.4869 528.9233 710.8214 508.6224 710.7648 499.4767 710.6038 491.6463 739.3505 491.6101 779.4911 491.5363 781.9177 492.2443 793.8226 492.4915 Z" id="BROWARD"/>
<path d="M 49.737 1 43.8934 4.5131 41.8647 4.6064 39.9993 7.8478 37.2096 8.5738 36.971 12.4079 33.8703 16.5273 36.0583 20.4713 34.217 24.6831 34.4257 29.4249 38.5247 31.1108 39.4319 40.5576 42.0156 43.1788 44.6091 47.397 47.8754 48.5418 51.0618 51.5061 50.9924 56.3673 47.4329 59.5974 47.0873 61.7685 42.9845 62.8428 39.1945 65.4539 39.701 68.2857 35.1924 68.455 33.0516 69.8862 27.0551 70.7092 28.7188 72.8472 19.268 74.3414 18.1197 70.7728 21.6969 63.1002 27.4361 60.7925 27.7004 59.1261 22.4818 56.1559 19.8535 50.408 23.9428 44.6299 25.5226 38.0596 23.8144 34.3368 17.8178 31.5077 10.7733 27.2099 9.5616 23.5287 3.1925 18.4039 1 15.1778 1.6396 11.7514 4.9399 4.8613 3.8483 1.1101 49.737 1 Z M 87.9379 63.4151 87.8927 64.9259 83.1009 65.2667 66.708 67.7411 60.6475 68.3549 51.3296 70.368 39.0062 72.2442 39.4762 70.7925 43.3762 70.8751 50.138 69.2788 55.812 68.9058 62.0701 66.9871 63.4688 67.3044 74.9182 65.7548 82.9642 63.7283 87.9379 63.4151 Z" id="ESCAMBIA"/>
<path d="M 731.8792 362.784 731.9947 399.876 732.0526 408.7648 710.183 425.8347 711.6699 406.0324 707.7448 403.2919 704.3652 399.8644 701.1124 398.5732 698.0994 393.37 698.4722 390.5708 695.3919 389.6426 694.8641 384.5464 691.4935 381.5575 686.2882 381.0543 683.082 377.7948 683.5143 375.896 679.0609 370.8642 676.539 369.9029 675.8681 366.3979 683.4499 357.9219 683.1784 353.871 711.4711 353.989 721.4652 353.8816 721.5739 362.7577 731.8792 362.784 Z" id="OKEECHOBEE"/>
<path d="M 325.2605 104.7449 328.2731 107.0574 331.2327 107.0537 333.1281 105.539 336.6316 108.083 346.8287 111.463 347.6861 113.5436 346.37 116.5168 343.4623 114.4628 333.6147 113.3056 331.0414 115.3049 325.2767 115.5903 315.6341 121.2434 307.6262 125.0376 299.6168 129.8496 295.5171 130.7392 289.0257 133.6408 289.623 127.6684 285.6348 128.4176 282.6212 132.45 279.1893 133.1079 279.0661 135.1316 273.3669 136.2627 268.4002 134.8932 254.9381 137.2309 255.6206 136.2529 265.7811 129.3827 269.108 130.2563 270.0513 128.5497 273.2404 128.8649 275.1833 126.1445 271.6166 116.1133 275.3385 110.9811 274.61 108.8711 276.5104 104.4447 296.1241 104.7064 325.2605 104.7449 Z M 304.483 135.9549 300.3727 138.337 292.8372 141.0854 283.1383 146.0453 281.2665 145.2645 291.2958 140.4015 304.483 135.9549 Z M 263.8444 140.1304 265.9547 137.7759 269.1499 139.6195 266.6445 143.7072 263.3853 144.0332 255.2337 138.3208 258.8264 137.9453 263.8444 140.1304 Z" id="FRANKLIN"/>
<path d="M 548.8715 114.0046 551.1342 117.8934 557.6341 118.6483 563.2509 122.2223 572.9334 121.8739 577.5063 122.8465 579.8907 124.4572 581.4583 128.6582 584.6122 129.5321 587.5247 133.6761 587.1948 135.516 587.0453 161.368 587.2904 161.6429 586.9689 164.7661 579.7861 165.9848 571.9436 166.706 570.4439 165.5351 570.6015 160.1716 550.1101 160.0803 540.7089 160.0239 534.3416 160.5955 534.3745 154.5477 523.8688 154.7563 523.8676 151.6843 523.6785 123.7583 530.5486 120.4207 530.5907 117.7395 532.3212 115.0274 537.2059 112.1071 541.7856 112.1937 548.8715 114.0046 Z" id="ALACHUA"/>
<path d="M 672.2036 141.7424 670.5256 140.9949 666.8735 142.5625 664.0253 145.2868 643.0367 145.6179 642.8852 131.2387 639.0037 127.399 637.0257 122.7821 634.2022 115.7511 635.158 111.8755 634.1198 109.2223 627.5591 105.1417 625.7595 103.2252 625.61 99.323 626.585 93.1124 633.5039 91.8545 641.4339 94.9635 652.5439 94.815 652.1678 79.3473 652.5981 79.3428 655.8551 89.4415 657.615 92.0618 659.3739 102.4433 663.0612 107.5007 662.1337 108.285 665.2568 112.3581 666.376 115.439 665.1523 120.9861 667.0546 126.0754 672.4894 133.4737 672.3904 135.3996 674.624 140.3602 672.2036 141.7424 Z M 653.4118 79.3342 658.0986 79.2856 660.2588 86.8282 665.5358 108.7989 660.7188 101.0961 660.3893 95.492 656.8784 88.9978 654.9924 82.1807 653.4118 79.3342 Z M 670.4137 124.6718 667.3061 124.3968 666.826 115.3115 668.2494 115.3699 670.1123 119.3174 670.4137 124.6718 Z" id="ST. JOHNS"/>
</g>
</svg>